<svg width="18" height="18" viewBox="0 0 18 18" fill="none" xmlns="http://www.w3.org/2000/svg">
<path d="M15.3 0H2.7C1.215 0 0 1.215 0 2.7V15.3C0 16.785 1.215 18 2.7 18H15.3C16.785 18 18 16.785 18 15.3V2.7C18 1.215 16.785 0 15.3 0Z" fill="url(#paint0_linear_53_399)"/>
<path d="M15.3 0H2.7C1.215 0 0 1.215 0 2.7V15.3C0 16.785 1.215 18 2.7 18H15.3C16.785 18 18 16.785 18 15.3V2.7C18 1.215 16.785 0 15.3 0Z" fill="url(#paint1_linear_53_399)"/>
<path d="M13.014 7.38891L8.51403 11.8889C8.33403 12.0599 8.10903 12.1499 7.87503 12.1499C7.64103 12.1499 7.41603 12.0599 7.23603 11.8889L4.98603 9.63891C4.63503 9.28791 4.63503 8.71191 4.98603 8.36091C5.33703 8.00991 5.91303 8.00991 6.26403 8.36091L7.87503 9.98091L11.736 6.11091C12.087 5.75991 12.663 5.75991 13.014 6.11091C13.365 6.46191 13.365 7.03791 13.014 7.38891Z" fill="#7F6DC2"/>
<defs>
<linearGradient id="paint0_linear_53_399" x1="9" y1="0" x2="9" y2="2" gradientUnits="userSpaceOnUse">
<stop stop-color="#C0F2DB"/>
<stop offset="1" stop-color="#00E5AD"/>
</linearGradient>
<linearGradient id="paint1_linear_53_399" x1="9" y1="0" x2="9" y2="2" gradientUnits="userSpaceOnUse">
<stop stop-color="#6B53C4"/>
<stop offset="1" stop-color="#4B349B"/>
</linearGradient>
</defs>
</svg>
