<svg width="460" height="100" viewBox="0 0 460 100" fill="none" xmlns="http://www.w3.org/2000/svg">
<path d="M100.75 10.5578C100.661 8.54602 99.9994 6.60203 98.8441 4.95591C99.1229 4.66388 99.3384 4.31704 99.4771 3.93725C99.6157 3.55746 99.6746 3.15296 99.6498 2.74922C99.6251 2.34549 99.5173 1.95127 99.3333 1.59142C99.1493 1.23157 98.8931 0.913879 98.5807 0.658368C98.2684 0.402857 97.9067 0.215064 97.5185 0.106822C97.1303 -0.00142036 96.724 -0.0277651 96.3252 0.0294475C95.9263 0.0866601 95.5436 0.22619 95.2011 0.439245C94.8587 0.6523 94.5638 0.934262 94.3353 1.26736C92.7592 0.584294 91.0411 0.296923 89.3295 0.430097C87.618 0.563271 85.9645 1.11298 84.512 2.0317C84.2279 1.76674 83.894 1.56142 83.5297 1.42776C83.1655 1.29411 82.7784 1.23482 82.3911 1.25337C82.0037 1.27193 81.624 1.36795 81.2741 1.53582C80.9242 1.70368 80.6112 1.94 80.3535 2.23091C80.0958 2.52182 79.8986 2.86148 79.7733 3.22994C79.6481 3.59841 79.5974 3.98828 79.6243 4.37667C79.6511 4.76506 79.7549 5.14416 79.9296 5.49174C80.1044 5.83931 80.3464 6.14836 80.6417 6.40075C79.5465 8.65982 79.2887 11.2368 79.9148 13.6694C79.9547 13.8451 80.0526 14.0021 80.1925 14.1149C80.3325 14.2277 80.5064 14.2896 80.6859 14.2907C80.751 14.3003 80.8172 14.3003 80.8824 14.2907C80.9852 14.2649 81.0819 14.2187 81.1668 14.1549C81.2516 14.0911 81.3229 14.0109 81.3764 13.919C81.43 13.8271 81.4647 13.7254 81.4785 13.6199C81.4924 13.5143 81.485 13.4071 81.457 13.3044C80.9229 11.2233 81.1494 9.0189 82.0955 7.09112C82.2367 7.11616 82.3795 7.13099 82.5228 7.1355C83.3002 7.13553 84.0461 6.82719 84.598 6.27765C85.15 5.7281 85.4633 4.98185 85.4698 4.20143C85.4572 3.94335 85.411 3.68805 85.3323 3.44203C86.1445 2.9063 87.0389 2.50815 87.9796 2.26347C88.5548 2.12296 89.1419 2.03711 89.7331 2.00705C91.1427 1.94555 92.5471 2.21573 93.8343 2.79604C93.8343 2.84042 93.8343 2.87987 93.8343 2.92918C93.8265 3.37787 93.9231 3.8222 94.1163 4.22684C94.3096 4.63148 94.5942 4.98527 94.9476 5.26008C95.3009 5.5349 95.7133 5.72316 96.1518 5.80989C96.5904 5.89662 97.043 5.87943 97.4738 5.75969C98.5496 7.25393 99.1438 9.04317 99.1763 10.8866C99.2087 12.7301 98.678 14.5393 97.6555 16.0708C97.4156 16.0037 97.1678 15.9689 96.9188 15.9673C96.239 15.9635 95.5789 16.1957 95.0501 16.6247C94.5214 17.0536 94.1567 17.6529 94.0177 18.321C93.8787 18.989 93.974 19.6848 94.2875 20.2904C94.6009 20.896 95.1133 21.3741 95.7377 21.6438C96.3621 21.9136 97.0602 21.9583 97.7137 21.7704C98.3672 21.5825 98.9359 21.1735 99.3235 20.6128C99.711 20.0521 99.8936 19.3742 99.8403 18.6938C99.7869 18.0134 99.5009 17.3725 99.0308 16.8796C100.257 15.0084 100.859 12.7947 100.75 10.5578Z" fill="url(#paint0_linear_177_1129)"/>
<path d="M38.9028 50.826H44.0354L70.5876 21.5297C71.4207 21.722 72.2928 21.6494 73.083 21.322C73.8733 20.9946 74.5425 20.4285 74.998 19.7023C75.4536 18.976 75.6729 18.1255 75.6255 17.2685C75.5782 16.4116 75.2666 15.5906 74.7338 14.9194C74.2011 14.2481 73.4736 13.7598 72.6522 13.5221C71.8308 13.2845 70.956 13.3091 70.1492 13.5928C69.3424 13.8764 68.6434 14.4049 68.149 15.1052C67.6547 15.8054 67.3895 16.6426 67.3902 17.5009C67.3888 18.0775 67.5111 18.6476 67.7487 19.1726L38.9028 50.826Z" fill="url(#paint1_linear_177_1129)"/>
<path d="M57.1789 50.826L88.3677 16.3075C89.5955 16.7552 90.9415 16.7525 92.1676 16.2999C93.3936 15.8472 94.4207 14.9738 95.0672 13.8341C95.7136 12.6945 95.9378 11.362 95.7001 10.0724C95.4623 8.78275 94.7779 7.6191 93.768 6.78726C92.758 5.95541 91.4876 5.50898 90.1814 5.52692C88.8752 5.54486 87.6174 6.02602 86.6305 6.88529C85.6436 7.74456 84.9912 8.92656 84.7887 10.2222C84.5862 11.5179 84.8466 12.8437 85.5238 13.9652L51.9137 50.8161L57.1789 50.826Z" fill="url(#paint2_linear_177_1129)"/>
<path d="M89.8903 21.362C89.2376 21.3605 88.5945 21.5194 88.0171 21.8249C87.4397 22.1304 86.9455 22.5731 86.5778 23.1145C86.2101 23.6559 85.98 24.2794 85.9075 24.9306C85.8351 25.5819 85.9226 26.241 86.1623 26.8505L64.2664 50.8359H69.5856L88.9325 29.2963C89.246 29.3733 89.5675 29.413 89.8903 29.4147C90.4281 29.4336 90.9641 29.3436 91.4666 29.15C91.969 28.9564 92.4274 28.6633 92.8145 28.288C93.2016 27.9127 93.5095 27.463 93.7198 26.9656C93.9301 26.4683 94.0384 25.9336 94.0384 25.3933C94.0384 24.853 93.9301 24.3183 93.7198 23.821C93.5095 23.3236 93.2016 22.8739 92.8145 22.4986C92.4274 22.1233 91.969 21.8302 91.4666 21.6366C90.9641 21.443 90.4281 21.353 89.8903 21.3719V21.362Z" fill="url(#paint3_linear_177_1129)"/>
<path d="M78.8146 55.3627C77.6288 55.3627 76.4736 55.7403 75.5151 56.4412C74.5566 57.1421 73.8443 58.1302 73.4806 59.2633H45.5237C45.1195 57.9939 44.2804 56.9093 43.1553 56.2021C42.0302 55.4949 40.6919 55.2109 39.378 55.4003C38.0641 55.5898 36.8596 56.2406 35.9783 57.2371C35.0969 58.2337 34.5958 59.5115 34.5639 60.8438C34.532 62.1762 34.9713 63.4767 35.8038 64.5147C36.6364 65.5526 37.8084 66.2608 39.1117 66.5135C40.415 66.7663 41.7653 66.5471 42.923 65.8951C44.0806 65.2431 44.9707 64.2003 45.4352 62.9518H61.0886C61.0886 62.9518 61.0886 62.9913 61.0886 63.0159C60.4471 66.9407 58.7002 70.599 56.0542 73.5589L56.005 73.6082C54.9885 74.7478 53.8485 75.7699 52.6062 76.6557C48.2313 79.8183 42.8032 81.1498 37.4686 80.3689C34.9907 79.9484 32.6001 79.1151 30.3959 77.9033C30.5277 77.4213 30.5938 76.9237 30.5923 76.4239C30.5938 75.5165 30.3762 74.6222 29.9582 73.8176C29.5402 73.013 28.9343 72.3221 28.1923 71.804C27.4503 71.2859 26.5943 70.9559 25.6976 70.8425C24.8008 70.729 23.8901 70.8354 23.0432 71.1524C20.51 67.3658 19.3 62.8421 19.6031 58.2907C19.9063 53.7393 21.7053 49.4177 24.7181 46.0033C24.9096 45.7764 25.1012 45.5644 25.3025 45.3573C28.8999 41.5175 33.8155 39.1927 39.0551 38.853L41.9726 38.5522L54.8606 24.4342C55.6912 24.673 56.5755 24.6437 57.3886 24.3504C58.2016 24.0571 58.9023 23.5147 59.3916 22.7998C59.8808 22.0849 60.1339 21.2337 60.1151 20.3665C60.0962 19.4993 59.8064 18.66 59.2865 17.9672C58.7666 17.2744 58.043 16.7632 57.218 16.5059C56.393 16.2485 55.5082 16.2579 54.6888 16.5329C53.8694 16.8079 53.1569 17.3345 52.6518 18.0382C52.1468 18.742 51.8748 19.5873 51.8744 20.4547C51.8746 20.9606 51.9679 21.4621 52.1494 21.9341L40.1012 35.1645H38.7113C32.2379 35.6338 26.2116 38.6522 21.9448 43.5622C17.678 48.4722 15.5165 54.876 15.9312 61.3788C15.9286 61.4149 15.9286 61.4512 15.9312 61.4873C16.2575 65.821 17.731 69.9886 20.1994 73.5589C19.7081 74.3768 19.4334 75.3074 19.4016 76.2621C19.3698 77.2167 19.5819 78.1637 20.0176 79.0128L14.05 84.9943C9.0469 79.792 5.67986 73.226 4.36879 66.1152C3.05773 59.0045 3.86065 51.6635 6.67744 45.0078C9.49422 38.3521 14.2002 32.6762 20.2086 28.6879C26.217 24.6996 33.2618 22.5753 40.4647 22.58C40.9545 22.58 41.4242 22.3847 41.7706 22.037C42.1169 21.6893 42.3115 21.2177 42.3115 20.7259C42.3115 20.2342 42.1169 19.7626 41.7706 19.4148C41.4242 19.0671 40.9545 18.8718 40.4647 18.8718C29.8666 18.8542 19.686 23.0187 12.1178 30.4674C4.54964 37.9161 0.200034 48.0525 0.00672854 58.6911C-0.186577 69.3298 3.7919 79.6186 11.0844 87.3395C18.377 95.0604 28.3995 99.5949 38.9912 99.9655C39.0801 99.9846 39.1705 99.9961 39.2613 100C39.6543 100 40.0423 100 40.4352 100C49.9393 99.9834 59.1343 96.6089 66.4086 90.4678C73.6828 84.3268 78.572 75.8111 80.2193 66.4135C81.5434 66.0763 82.699 65.2648 83.4686 64.1317C84.2382 62.9986 84.5687 61.6222 84.3978 60.2615C84.227 58.9008 83.5666 57.6497 82.541 56.7438C81.5154 55.838 80.1953 55.3397 78.8293 55.343L78.8146 55.3627ZM37.1936 80.3097C37.2503 80.3118 37.3065 80.3217 37.3606 80.3393L37.0118 80.29L37.1936 80.3097ZM40.4942 96.3016H40.4647C31.7633 96.3082 23.3454 93.1955 16.7269 87.524L22.6552 81.5622C23.5551 81.9781 24.5492 82.1457 25.535 82.0478C26.5209 81.9498 27.4629 81.5899 28.2642 81.005C30.6828 82.3957 33.3209 83.3597 36.0639 83.8552C36.1769 83.8906 36.2917 83.9202 36.4077 83.944C37.3829 84.1091 38.3669 84.2162 39.3547 84.2645C43.7363 84.4687 48.0912 83.4787 51.9579 81.3995C52.5324 81.1023 53.09 80.773 53.6278 80.4132C53.8046 80.3048 53.9913 80.1864 54.1681 80.0582C54.3449 79.93 54.5659 79.7919 54.7575 79.6489C55.0915 79.4122 55.4206 79.1558 55.7398 78.9092C55.9608 78.7416 56.1769 78.5591 56.3881 78.3668C57.1838 77.686 57.9367 76.9564 58.6426 76.1823C58.6578 76.1584 58.6742 76.1354 58.6917 76.1132C61.8591 72.6131 63.9518 68.2688 64.7182 63.6028C64.7577 63.381 64.7577 63.1539 64.7182 62.9321H73.5837C73.8424 63.629 74.2359 64.2676 74.7418 64.811C75.2476 65.3544 75.8556 65.7918 76.5307 66.0979C74.9715 74.5598 70.5171 82.2091 63.9372 87.724C57.3574 93.2388 49.0654 96.2728 40.4942 96.3016Z" fill="url(#paint4_linear_177_1129)"/>
<path d="M128.977 78.8205C125.395 78.8205 122.557 78.0643 120.465 76.5521C118.305 74.9581 116.728 72.695 115.976 70.112C115.03 66.9698 114.578 63.6991 114.635 60.4172V42.6007C114.566 39.261 115.029 35.9317 116.005 32.7383C116.82 30.1145 118.523 27.8591 120.819 26.3623C123.111 24.8731 126.221 24.1284 130.151 24.1284C133.949 24.1284 136.95 24.7629 139.154 26.0319C141.298 27.2367 142.971 29.1371 143.898 31.4217C144.914 34.0618 145.403 36.8766 145.337 39.7061V42.7931H134.802V39.0552C134.813 37.8109 134.726 36.5677 134.542 35.3371C134.423 34.3836 133.997 33.4953 133.329 32.8074C132.695 32.1959 131.683 31.8902 130.283 31.8902C128.884 31.8902 127.798 32.26 127.145 33.0046C126.459 33.8146 126.025 34.8092 125.897 35.8647C125.72 37.0944 125.633 38.3354 125.637 39.5779V63.1787C125.623 64.5254 125.755 65.8696 126.03 67.1878C126.22 68.2407 126.736 69.2068 127.503 69.9492C128.379 70.6597 129.489 71.012 130.612 70.9355C131.757 71.0063 132.884 70.628 133.756 69.8802C134.539 69.1027 135.074 68.1088 135.293 67.025C135.594 65.6753 135.737 64.2952 135.721 62.9124V57.2612H130.549V50.6879H145.475V78.0315H138.402L137.749 73.2334C137.075 74.8267 135.99 76.2107 134.606 77.2425C133.211 78.2978 131.334 78.8238 128.977 78.8205Z" fill="#0A2337"/>
<path d="M152.813 78.0315V24.7744H175.898V32.2699H163.618V46.4175H173.113V53.977H163.618V70.6692H176.06V78.0315H152.813Z" fill="#0A2337"/>
<path d="M196.217 78.7564C192.327 78.7564 189.249 78.0545 186.983 76.6507C184.723 75.2629 183.003 73.1423 182.106 70.6396C181.058 67.6308 180.559 64.4569 180.632 61.2703V41.4123C180.557 38.2385 181.056 35.0772 182.106 32.0825C182.999 29.6018 184.723 27.5099 186.983 26.165C189.252 24.8237 192.33 24.1531 196.217 24.1531C200.104 24.1531 203.214 24.8435 205.549 26.2242C207.815 27.5712 209.55 29.6609 210.461 32.1417C211.443 34.7059 211.934 37.806 211.934 41.4419V61.295C212.008 64.4816 211.509 67.6555 210.461 70.6643C209.559 73.1744 207.825 75.2969 205.549 76.6754C203.257 78.066 200.146 78.7596 196.217 78.7564ZM196.217 70.9355C197.612 70.9355 198.637 70.6166 199.292 69.9788C199.979 69.2802 200.436 68.387 200.603 67.4195C200.825 66.2826 200.934 65.1262 200.927 63.9677V38.7889C200.935 37.6417 200.826 36.4967 200.603 35.3716C200.431 34.4145 199.974 33.5324 199.292 32.8419C198.637 32.2041 197.612 31.8869 196.217 31.8902C194.907 31.8902 193.925 32.2074 193.27 32.8419C192.584 33.5297 192.126 34.4131 191.959 35.3716C191.734 36.4966 191.623 37.6416 191.629 38.7889V63.9677C191.623 65.1249 191.722 66.2802 191.924 67.4195C192.068 68.3871 192.516 69.2835 193.201 69.9788C193.859 70.6149 194.861 70.9355 196.217 70.9355Z" fill="#0A2337"/>
<path d="M249.051 78.6232C245.469 78.6232 242.61 77.923 240.475 76.5225C238.315 75.0945 236.7 72.974 235.893 70.5064C234.921 67.551 234.456 64.4512 234.518 61.3393V41.1559C234.447 38.0831 234.923 35.0222 235.922 32.117C236.758 29.7261 238.373 27.6881 240.505 26.3327C242.62 24.998 245.469 24.3306 249.051 24.3306C252.633 24.3306 255.471 25.0095 257.563 26.3672C259.671 27.7414 261.269 29.7742 262.111 32.1515C263.115 35.0439 263.592 38.0939 263.521 41.1559V61.4034C263.581 64.4856 263.104 67.5547 262.111 70.4719C261.28 72.9169 259.685 75.0271 257.563 76.488C255.467 77.9148 252.63 78.6265 249.051 78.6232ZM249.051 72.7748C251.016 72.7748 252.499 72.3688 253.501 71.5568C254.545 70.6824 255.263 69.4772 255.534 68.1395C255.906 66.4462 256.081 64.7152 256.055 62.9814V39.6469C256.084 37.9342 255.909 36.2242 255.534 34.553C255.26 33.2518 254.541 32.088 253.501 31.2639C252.499 30.4979 251.016 30.1149 249.051 30.1149C247.086 30.1149 245.588 30.4996 244.567 31.2639C243.511 32.0782 242.779 33.2448 242.504 34.553C242.128 36.224 241.951 37.934 241.978 39.6469V62.9814C241.954 64.7154 242.13 66.4464 242.504 68.1395C242.776 69.4843 243.505 70.6923 244.567 71.5568C245.588 72.3704 247.086 72.7748 249.051 72.7748Z" fill="#0A2337"/>
<path d="M270.132 90.5222V40.0415H277.136V43.0643C277.998 42.0713 279.017 41.2268 280.151 40.5642C281.427 39.8387 282.875 39.4756 284.341 39.5138C286.306 39.5138 287.866 40.0283 289.022 41.0573C290.194 42.1121 291.083 43.4469 291.605 44.9381C292.167 46.4632 292.541 48.0513 292.72 49.6672C292.878 51.0325 292.965 52.4053 292.981 53.7798V62.9814C292.994 65.5323 292.731 68.077 292.195 70.5706C291.791 72.7244 290.806 74.7254 289.346 76.3549C287.976 77.8342 286.04 78.5591 283.555 78.5591C282.281 78.5823 281.029 78.2272 279.955 77.5383C278.925 76.8784 277.978 76.0952 277.136 75.2059V90.5222H270.132ZM282.18 73.0362C282.698 73.0783 283.217 72.9746 283.68 72.7368C284.142 72.499 284.529 72.1365 284.798 71.6899C285.387 70.5603 285.722 69.3147 285.78 68.0408C285.911 66.5056 285.977 64.8191 285.977 62.9814V53.7798C285.983 52.3177 285.896 50.8567 285.716 49.4058C285.61 48.2683 285.227 47.1745 284.601 46.2203C284.032 45.4313 283.136 45.0368 281.915 45.0368C281.009 45.0348 280.114 45.237 279.297 45.6285C278.518 45.9901 277.792 46.4544 277.136 47.0092V71.33C277.823 71.8298 278.573 72.2376 279.366 72.543C280.264 72.8858 281.219 73.0531 282.18 73.0362Z" fill="#0A2337"/>
<path d="M309.351 78.5591C307.695 78.6343 306.051 78.2468 304.601 77.4397C303.41 76.7043 302.49 75.5977 301.984 74.2887C301.407 72.7551 301.128 71.1246 301.163 69.4857V44.7064H297.17V40.0415H301.144V28.9314H308.153V40.0415H314.258V44.7064H308.172V69.0271C308.172 70.5064 308.408 71.5815 308.889 72.2176C309.371 72.8537 310.289 73.1693 311.64 73.1693C311.989 73.1693 312.396 73.1693 312.853 73.1052L314.194 72.9721V78.1646C313.32 78.2978 312.514 78.3964 311.772 78.4605C311.031 78.5246 310.22 78.5591 309.351 78.5591Z" fill="#0A2337"/>
<path d="M319.808 34.3854V27.0231H326.831V34.3854H319.808ZM319.808 78.0315V40.0612H326.831V78.0315H319.808Z" fill="#0A2337"/>
<path d="M334.292 78.0315V40.0612H340.775V43.6757C341.924 42.3042 343.353 41.196 344.965 40.4261C346.441 39.7332 348.051 39.373 349.68 39.3708C351.011 39.3516 352.319 39.718 353.447 40.4261C354.557 41.1263 355.353 42.3739 355.834 44.1689C357.02 42.6399 358.53 41.3951 360.255 40.5247C361.816 39.7625 363.529 39.3679 365.265 39.3708C366.436 39.3578 367.589 39.6646 368.6 40.2584C369.676 40.9309 370.522 41.9165 371.026 43.084C371.696 44.6969 372.008 46.4368 371.94 48.1829V78.0216H365.525V48.6513C365.525 46.8136 365.23 45.5759 364.641 44.9381C364.334 44.6164 363.961 44.3645 363.548 44.1995C363.136 44.0345 362.693 43.9602 362.249 43.9815C361.194 44.0078 360.161 44.2903 359.238 44.805C358.152 45.3837 357.178 46.1518 356.36 47.0734V78.0315H349.941V48.6513C349.941 46.8136 349.646 45.5759 349.056 44.9381C348.75 44.6168 348.378 44.3651 347.966 44.2001C347.554 44.0351 347.112 43.9606 346.669 43.9815C345.623 44.005 344.599 44.2879 343.688 44.805C342.603 45.4005 341.62 46.1663 340.775 47.0734V78.0315H334.292Z" fill="#0A2337"/>
<path d="M379.209 34.3854V27.0231H386.213V34.3854H379.209ZM379.209 78.0315V40.0612H386.213V78.0315H379.209Z" fill="#0A2337"/>
<path d="M392.234 78.0315V73.3024L403.826 45.2981H393.413V40.0415H411.355V43.8779L399.7 72.7354H411.09V78.0561L392.234 78.0315Z" fill="#0A2337"/>
<path d="M426.282 78.5591C423.312 78.5591 421.02 77.9789 419.406 76.8184C417.721 75.5557 416.529 73.7416 416.036 71.6899C415.35 68.974 415.033 66.1773 415.093 63.3759V54.697C415.028 51.8605 415.358 49.0288 416.075 46.2844C416.598 44.2465 417.814 42.4566 419.514 41.2249C421.151 40.0809 423.41 39.5105 426.292 39.5138C429.474 39.5138 431.82 40.1713 433.33 41.4863C434.839 42.8013 435.832 44.6965 436.306 47.172C436.827 50.111 437.069 53.0929 437.028 56.0777V59.1647H422.092V66.7883C422.058 68.0512 422.2 69.3127 422.515 70.536C422.722 71.3823 423.206 72.1342 423.89 72.6712C424.615 73.1572 425.475 73.399 426.346 73.3616C427.209 73.4214 428.063 73.1519 428.738 72.6071C429.327 72.0198 429.715 71.2602 429.848 70.4374C430.058 69.3441 430.157 68.2321 430.142 67.1187V64.8158H436.955V66.2607C436.955 70.0742 436.146 73.0773 434.528 75.27C432.911 77.4627 430.162 78.5591 426.282 78.5591ZM422.092 55.3528H430.142V51.9355C430.159 50.6059 430.071 49.277 429.882 47.961C429.784 47.057 429.406 46.2067 428.801 45.5299C428.256 44.9825 427.392 44.7064 426.218 44.7064C425.288 44.6386 424.365 44.9197 423.63 45.4954C423.04 46.0214 422.636 46.909 422.416 48.1582C422.169 49.8659 422.06 51.5909 422.092 53.3163V55.3528Z" fill="#0A2337"/>
<path d="M443.502 78.0315V40.0612H450.506V45.4313C451.901 43.107 453.297 41.5504 454.695 40.7614C455.966 40.0076 457.41 39.5996 458.885 39.5779H459.376C459.586 39.5848 459.794 39.6079 460 39.6469V47.4037C459.417 47.1618 458.814 46.972 458.197 46.8367C457.52 46.6847 456.828 46.6086 456.135 46.6098C455.094 46.5971 454.068 46.8572 453.158 47.3643C452.258 47.8673 451.374 48.842 450.506 50.2885V78.0265L443.502 78.0315Z" fill="#0A2337"/>
<defs>
<linearGradient id="paint0_linear_177_1129" x1="-6.74575" y1="10.9079" x2="101.491" y2="10.9079" gradientUnits="userSpaceOnUse">
<stop stop-color="#186BEF"/>
<stop offset="1" stop-color="#3C97EA"/>
</linearGradient>
<linearGradient id="paint1_linear_177_1129" x1="-6.74573" y1="32.0874" x2="101.491" y2="32.0874" gradientUnits="userSpaceOnUse">
<stop stop-color="#186BEF"/>
<stop offset="1" stop-color="#3C97EA"/>
</linearGradient>
<linearGradient id="paint2_linear_177_1129" x1="-6.74574" y1="28.177" x2="101.491" y2="28.177" gradientUnits="userSpaceOnUse">
<stop stop-color="#186BEF"/>
<stop offset="1" stop-color="#3C97EA"/>
</linearGradient>
<linearGradient id="paint3_linear_177_1129" x1="-6.74576" y1="36.0965" x2="101.491" y2="36.0965" gradientUnits="userSpaceOnUse">
<stop stop-color="#186BEF"/>
<stop offset="1" stop-color="#3C97EA"/>
</linearGradient>
<linearGradient id="paint4_linear_177_1129" x1="-6.74574" y1="58.1834" x2="101.491" y2="58.1834" gradientUnits="userSpaceOnUse">
<stop stop-color="#186BEF"/>
<stop offset="1" stop-color="#3C97EA"/>
</linearGradient>
</defs>
</svg>
