<svg width="139" height="142" viewBox="0 0 139 142" fill="none" xmlns="http://www.w3.org/2000/svg">
<path d="M62.7167 7.88023L62.4709 20.7769C62.3382 27.8478 63.7824 34.8743 66.7007 41.3558C69.6189 47.8372 73.9394 53.6139 79.354 58.274L89.2323 66.7711C89.4268 66.9403 89.5646 67.1642 89.6272 67.4124C89.6897 67.6606 89.674 67.9212 89.5821 68.1589C89.4902 68.3966 89.3266 68.6 89.1133 68.7415C88.9001 68.8831 88.6475 68.956 88.3897 68.9505L75.3647 68.5933C68.2234 68.3995 61.1408 69.7679 54.6216 72.6009C48.1025 75.4339 42.3074 79.6618 37.6494 84.9832L29.1563 94.6916C28.9871 94.8827 28.7622 95.0173 28.5122 95.077C28.2621 95.1368 27.9988 95.119 27.758 95.0258C27.5171 94.9327 27.3103 94.7689 27.1655 94.5564C27.0206 94.344 26.9448 94.0932 26.9481 93.8379L27.1939 80.9413C27.3266 73.8704 25.8824 66.8438 22.9641 60.3624C20.0458 53.881 15.7254 48.1043 10.3108 43.4441L0.432525 34.9471C0.238039 34.7778 0.100196 34.554 0.0376296 34.3058C-0.0249394 34.0576 -0.00920961 33.797 0.0826874 33.5593C0.174584 33.3216 0.338218 33.1182 0.551468 32.9766C0.764717 32.835 1.0173 32.7621 1.27506 32.7677L14.3001 33.1249C21.4414 33.3187 28.524 31.9503 35.0432 29.1173C41.5623 26.2843 47.3574 22.0564 52.0154 16.7349L60.5085 7.02657C60.6763 6.8323 60.9012 6.69487 61.1524 6.63324C61.4035 6.57161 61.6684 6.58879 61.9106 6.68244C62.1529 6.77608 62.3605 6.94157 62.5048 7.15609C62.6492 7.37062 62.7232 7.62362 62.7167 7.88023ZM124.765 0.646674L124.643 7.17688C124.577 10.7574 125.309 14.3153 126.787 17.5973C128.264 20.8792 130.451 23.8047 133.192 26.1653L138.193 30.4695C138.292 30.5551 138.362 30.6687 138.394 30.7946C138.426 30.9205 138.418 31.0528 138.371 31.1734C138.324 31.2941 138.241 31.3973 138.133 31.469C138.025 31.5407 137.896 31.5775 137.766 31.5744L131.17 31.3959C127.554 31.2988 123.968 31.9923 120.667 33.4269C117.366 34.8614 114.431 37.0018 112.072 39.6957L107.769 44.6099C107.684 44.7071 107.57 44.7756 107.443 44.806C107.316 44.8365 107.182 44.8275 107.06 44.7803C106.938 44.733 106.833 44.6498 106.76 44.5419C106.686 44.434 106.648 44.3066 106.65 44.1771L106.772 37.6469C106.838 34.0664 106.106 30.5085 104.628 27.2265C103.151 23.9445 100.963 21.0191 98.2224 18.6585L93.2221 14.3543C93.1232 14.2686 93.0531 14.1551 93.0212 14.0292C92.9893 13.9033 92.9972 13.771 93.0438 13.6504C93.0905 13.5297 93.1736 13.4265 93.2819 13.3548C93.3902 13.2831 93.5185 13.2463 93.6493 13.2494L100.244 13.4279C103.861 13.5249 107.447 12.8315 110.748 11.3969C114.049 9.96235 116.984 7.82197 119.343 5.1281L123.646 0.213886C123.731 0.116692 123.845 0.0482079 123.972 0.0177235C124.099 -0.0127582 124.233 -0.00376539 124.355 0.0434911C124.477 0.0907449 124.582 0.173974 124.655 0.281879C124.729 0.389784 124.767 0.517143 124.765 0.646674ZM87.1977 97.8229L87.0756 104.353C87.0096 107.934 87.7414 111.491 89.2192 114.773C90.6969 118.055 92.8841 120.981 95.6251 123.342L100.625 127.646C100.724 127.731 100.794 127.845 100.826 127.971C100.858 128.097 100.85 128.229 100.804 128.35C100.757 128.47 100.674 128.573 100.566 128.645C100.457 128.717 100.329 128.754 100.198 128.751L93.6031 128.572C89.9869 128.475 86.4007 129.169 83.0996 130.603C79.7985 132.038 76.8637 134.178 74.5042 136.872L70.202 141.786C70.1163 141.883 70.0023 141.952 69.8754 141.982C69.7486 142.013 69.6149 142.004 69.4927 141.957C69.3705 141.909 69.2655 141.826 69.1922 141.718C69.1188 141.61 69.0805 141.483 69.0825 141.353L69.2046 134.823C69.2706 131.243 68.5388 127.685 67.061 124.403C65.5833 121.121 63.3961 118.195 60.655 115.835L55.6548 111.531C55.5559 111.445 55.4857 111.331 55.4538 111.205C55.4219 111.08 55.4298 110.947 55.4765 110.827C55.5231 110.706 55.6062 110.603 55.7145 110.531C55.8229 110.459 55.9511 110.423 56.0819 110.426L62.6771 110.604C66.2933 110.701 69.8795 110.008 73.1806 108.573C76.4817 107.139 79.4165 104.998 81.776 102.304L86.0782 97.3901C86.4681 96.9466 87.2127 97.2345 87.1977 97.8229Z" fill="url(#paint0_linear_177_1150)"/>
<defs>
<linearGradient id="paint0_linear_177_1150" x1="-27.3494" y1="81.7216" x2="115.563" y2="187.737" gradientUnits="userSpaceOnUse">
<stop stop-color="#2887FF"/>
<stop offset="0.403846" stop-color="#22CFFF"/>
<stop offset="0.600962" stop-color="#FFD106"/>
<stop offset="1" stop-color="#FF6A35"/>
</linearGradient>
</defs>
</svg>
