<svg width="368" height="80" viewBox="0 0 368 80" fill="none" xmlns="http://www.w3.org/2000/svg">
<path d="M80.5999 8.44621C80.5286 6.83682 79.9995 5.28162 79.0753 3.96473C79.2983 3.7311 79.4707 3.45363 79.5817 3.1498C79.6926 2.84597 79.7396 2.52237 79.7198 2.19938C79.7 1.87639 79.6138 1.56102 79.4666 1.27314C79.3194 0.985256 79.1144 0.731103 78.8646 0.526694C78.6147 0.322285 78.3254 0.172051 78.0148 0.0854573C77.7043 -0.00113629 77.3792 -0.0222121 77.0601 0.023558C76.7411 0.0693281 76.4349 0.180952 76.1609 0.351396C75.8869 0.52184 75.6511 0.747409 75.4682 1.01389C74.2073 0.467435 72.8329 0.237538 71.4636 0.344077C70.0944 0.450616 68.7716 0.890385 67.6096 1.62536C67.3823 1.41339 67.1152 1.24913 66.8238 1.14221C66.5324 1.03529 66.2227 0.987856 65.9128 1.0027C65.603 1.01754 65.2992 1.09436 65.0193 1.22865C64.7394 1.36294 64.489 1.552 64.2828 1.78473C64.0766 2.01746 63.9188 2.28918 63.8187 2.58395C63.7185 2.87873 63.6779 3.19062 63.6994 3.50134C63.7209 3.81205 63.8039 4.11533 63.9437 4.39339C64.0835 4.67145 64.2771 4.91869 64.5134 5.1206C63.6372 6.92786 63.431 8.98941 63.9318 10.9355C63.9637 11.076 64.042 11.2017 64.154 11.2919C64.266 11.3821 64.4051 11.4317 64.5487 11.4325C64.6008 11.4403 64.6538 11.4403 64.7059 11.4325C64.7882 11.4119 64.8655 11.375 64.9334 11.3239C65.0013 11.2729 65.0583 11.2087 65.1012 11.1352C65.144 11.0617 65.1717 10.9803 65.1828 10.8959C65.1939 10.8115 65.188 10.7257 65.1656 10.6436C64.7383 8.97866 64.9195 7.21512 65.6764 5.6729C65.7894 5.69293 65.9036 5.70479 66.0183 5.7084C66.6401 5.70842 67.2369 5.46175 67.6784 5.02212C68.12 4.58248 68.3707 3.98548 68.3758 3.36115C68.3658 3.15468 68.3288 2.95044 68.2658 2.75362C68.9156 2.32504 69.6311 2.00652 70.3837 1.81077C70.8439 1.69837 71.3135 1.62968 71.7865 1.60564C72.9142 1.55644 74.0377 1.77258 75.0674 2.23683C75.0674 2.27234 75.0674 2.3039 75.0674 2.34334C75.0612 2.7023 75.1384 3.05776 75.2931 3.38147C75.4477 3.70518 75.6754 3.98822 75.9581 4.20807C76.2407 4.42792 76.5706 4.57852 76.9215 4.64791C77.2723 4.71729 77.6344 4.70355 77.979 4.60776C78.8397 5.80315 79.315 7.23454 79.341 8.70931C79.367 10.1841 78.9424 11.6315 78.1244 12.8567C77.9325 12.803 77.7343 12.7751 77.535 12.7738C76.9912 12.7708 76.4631 12.9566 76.0401 13.2998C75.6171 13.6429 75.3253 14.1223 75.2141 14.6568C75.1029 15.1912 75.1792 15.7478 75.43 16.2323C75.6807 16.7168 76.0906 17.0993 76.5902 17.3151C77.0897 17.5308 77.6482 17.5666 78.171 17.4163C78.6938 17.266 79.1487 16.9388 79.4588 16.4903C79.7688 16.0417 79.9149 15.4993 79.8722 14.955C79.8295 14.4107 79.6007 13.898 79.2246 13.5037C80.2052 12.0067 80.6868 10.2357 80.5999 8.44621Z" fill="url(#paint0_linear_1_2330)"/>
<path d="M31.1222 40.6608H35.2283L56.4701 17.2238C57.1366 17.3776 57.8343 17.3196 58.4664 17.0576C59.0986 16.7957 59.634 16.3428 59.9984 15.7618C60.3629 15.1808 60.5383 14.5004 60.5004 13.8148C60.4625 13.1293 60.2133 12.4725 59.7871 11.9355C59.3609 11.3985 58.7789 11.0079 58.1218 10.8177C57.4646 10.6276 56.7648 10.6473 56.1194 10.8742C55.4739 11.1011 54.9147 11.524 54.5192 12.0841C54.1237 12.6443 53.9116 13.3141 53.9121 14.0007C53.9111 14.462 54.0089 14.9181 54.199 15.3381L31.1222 40.6608Z" fill="url(#paint1_linear_1_2330)"/>
<path d="M45.7431 40.6608L70.6941 13.046C71.6764 13.4042 72.7532 13.402 73.7341 13.0399C74.7149 12.6778 75.5366 11.9791 76.0537 11.0673C76.5709 10.1556 76.7503 9.08959 76.5601 8.0579C76.3698 7.0262 75.8223 6.09528 75.0144 5.42981C74.2064 4.76433 73.1901 4.40718 72.1451 4.42154C71.1002 4.43589 70.094 4.82081 69.3044 5.50823C68.5149 6.19565 67.993 7.14125 67.8309 8.17779C67.6689 9.21432 67.8772 10.275 68.4191 11.1722L41.5309 40.6529L45.7431 40.6608Z" fill="url(#paint2_linear_1_2330)"/>
<path d="M71.9122 17.0896C71.3901 17.0884 70.8756 17.2155 70.4137 17.4599C69.9517 17.7043 69.5564 18.0585 69.2622 18.4916C68.9681 18.9247 68.784 19.4235 68.726 19.9445C68.6681 20.4655 68.7381 20.9928 68.9299 21.4804L51.4131 40.6687H55.6685L71.146 23.4371C71.3968 23.4986 71.654 23.5304 71.9122 23.5318C72.3424 23.5469 72.7713 23.4749 73.1732 23.32C73.5752 23.1651 73.9419 22.9306 74.2516 22.6304C74.5613 22.3301 74.8076 21.9704 74.9758 21.5725C75.144 21.1747 75.2307 20.7469 75.2307 20.3146C75.2307 19.8824 75.144 19.4546 74.9758 19.0568C74.8076 18.6589 74.5613 18.2991 74.2516 17.9989C73.9419 17.6987 73.5752 17.4641 73.1732 17.3093C72.7713 17.1544 72.3424 17.0824 71.9122 17.0975V17.0896Z" fill="url(#paint3_linear_1_2330)"/>
<path d="M63.0517 44.2902C62.103 44.2902 61.1789 44.5923 60.4121 45.153C59.6453 45.7137 59.0754 46.5042 58.7844 47.4106H36.4189C36.0956 46.3951 35.4243 45.5275 34.5242 44.9617C33.6242 44.3959 32.5536 44.1687 31.5024 44.3203C30.4513 44.4719 29.4877 44.9925 28.7826 45.7897C28.0775 46.587 27.6767 47.6092 27.6511 48.6751C27.6256 49.7409 27.977 50.7814 28.6431 51.6117C29.3091 52.4421 30.2467 53.0087 31.2893 53.2108C32.332 53.413 33.4123 53.2377 34.3384 52.7161C35.2645 52.1944 35.9766 51.3602 36.3482 50.3615H48.8708C48.8708 50.3615 48.8708 50.393 48.8708 50.4128C48.3577 53.5525 46.9602 56.4792 44.8433 58.8471L44.804 58.8865C43.9908 59.7982 43.0788 60.6159 42.085 61.3245C38.585 63.8546 34.2426 64.9198 29.9749 64.2951C27.9925 63.9588 26.0801 63.2921 24.3167 62.3226C24.4222 61.9371 24.4751 61.5389 24.4739 61.1391C24.475 60.4132 24.301 59.6978 23.9666 59.0541C23.6322 58.4104 23.1475 57.8577 22.5539 57.4432C21.9602 57.0287 21.2754 56.7647 20.5581 56.674C19.8407 56.5832 19.112 56.6683 18.4346 56.9219C16.408 53.8926 15.44 50.2737 15.6825 46.6326C15.925 42.9915 17.3642 39.5341 19.7744 36.8026C19.9277 36.6212 20.0809 36.4515 20.242 36.2858C23.1199 33.214 27.0524 31.3541 31.244 31.0824L33.578 30.8418L43.8885 19.5473C44.553 19.7384 45.2604 19.715 45.9109 19.4803C46.5613 19.2457 47.1219 18.8118 47.5133 18.2398C47.9047 17.6679 48.1071 16.987 48.0921 16.2932C48.077 15.5995 47.8451 14.928 47.4292 14.3738C47.0133 13.8196 46.4344 13.4106 45.7744 13.2047C45.1144 12.9988 44.4066 13.0064 43.7511 13.2263C43.0956 13.4463 42.5255 13.8676 42.1215 14.4306C41.7174 14.9936 41.4998 15.6698 41.4995 16.3638C41.4997 16.7685 41.5743 17.1697 41.7195 17.5472L32.081 28.1316H30.969C25.7903 28.507 20.9692 30.9218 17.5558 34.8498C14.1424 38.7778 12.4132 43.9008 12.7449 49.103C12.7429 49.1319 12.7429 49.1609 12.7449 49.1898C13.006 52.6568 14.1848 55.9909 16.1595 58.8471C15.7664 59.5015 15.5467 60.2459 15.5213 61.0097C15.4958 61.7734 15.6655 62.5309 16.0141 63.2102L11.24 67.9955C7.23752 63.8336 4.54389 58.5808 3.49503 52.8922C2.44618 47.2036 3.08852 41.3308 5.34195 36.0063C7.59538 30.6817 11.3602 26.141 16.1669 22.9503C20.9736 19.7597 26.6095 18.0603 32.3718 18.064C32.7636 18.064 33.1394 17.9078 33.4164 17.6296C33.6935 17.3514 33.8492 16.9741 33.8492 16.5807C33.8492 16.1873 33.6935 15.81 33.4164 15.5319C33.1394 15.2537 32.7636 15.0974 32.3718 15.0974C23.8933 15.0834 15.7488 18.415 9.69426 24.3739C3.63971 30.3329 0.160028 38.442 0.00538284 46.9529C-0.149262 55.4638 3.03352 63.6949 8.86756 69.8716C14.7016 76.0483 22.7196 79.676 31.193 79.9724C31.2641 79.9876 31.3364 79.9969 31.4091 80C31.7234 80 32.0338 80 32.3482 80C39.9514 79.9867 47.3075 77.2871 53.1268 72.3743C58.9462 67.4614 62.8576 60.6489 64.1754 53.1308C65.2347 52.8611 66.1592 52.2118 66.7749 51.3054C67.3906 50.3989 67.655 49.2977 67.5183 48.2092C67.3816 47.1206 66.8533 46.1198 66.0328 45.3951C65.2123 44.6704 64.1562 44.2718 63.0634 44.2744L63.0517 44.2902ZM29.7548 64.2478C29.8003 64.2494 29.8452 64.2574 29.8884 64.2714L29.6095 64.232L29.7548 64.2478ZM32.3953 77.0413H32.3718C25.4106 77.0465 18.6763 74.5564 13.3815 70.0192L18.1241 65.2498C18.8441 65.5825 19.6393 65.7166 20.428 65.6382C21.2167 65.5599 21.9704 65.2719 22.6114 64.804C24.5462 65.9165 26.6567 66.6878 28.8511 67.0842C28.9415 67.1125 29.0333 67.1362 29.1262 67.1552C29.9063 67.2873 30.6935 67.3729 31.4837 67.4116C34.989 67.5749 38.473 66.7829 41.5663 65.1196C42.0259 64.8818 42.472 64.6184 42.9023 64.3306C43.0437 64.2438 43.193 64.1491 43.3345 64.0466C43.4759 63.944 43.6527 63.8335 43.806 63.7191C44.0732 63.5298 44.3364 63.3246 44.5919 63.1274C44.7687 62.9933 44.9416 62.8473 45.1105 62.6934C45.747 62.1488 46.3493 61.5651 46.9141 60.9458C46.9262 60.9268 46.9393 60.9083 46.9534 60.8906C49.4873 58.0905 51.1615 54.615 51.7746 50.8822C51.8061 50.7048 51.8061 50.5231 51.7746 50.3457H58.867C59.0739 50.9032 59.3888 51.4141 59.7934 51.8488C60.1981 52.2835 60.6845 52.6334 61.2245 52.8784C59.9772 59.6479 56.4137 65.7673 51.1498 70.1792C45.8859 74.591 39.2523 77.0182 32.3953 77.0413Z" fill="url(#paint4_linear_1_2330)"/>
<path d="M103.182 63.0564C100.316 63.0564 98.0459 62.4515 96.372 61.2417C94.6443 59.9664 93.3823 58.156 92.7807 56.0896C92.0244 53.5759 91.6625 50.9593 91.708 48.3338V34.0806C91.653 31.4088 92.023 28.7453 92.8043 26.1907C93.4562 24.0916 94.8183 22.2873 96.655 21.0898C98.4886 19.8984 100.977 19.3028 104.121 19.3028C107.159 19.3028 109.56 19.8103 111.323 20.8255C113.038 21.7893 114.377 23.3097 115.119 25.1374C115.931 27.2494 116.323 29.5013 116.27 31.7649V34.2345H107.842V31.2442C107.85 30.2487 107.781 29.2541 107.633 28.2697C107.538 27.5069 107.197 26.7963 106.663 26.2459C106.156 25.7567 105.347 25.5121 104.227 25.5121C103.107 25.5121 102.238 25.808 101.716 26.4037C101.167 27.0517 100.82 27.8474 100.718 28.6918C100.576 29.6755 100.506 30.6684 100.51 31.6623V50.5429C100.499 51.6203 100.604 52.6956 100.824 53.7502C100.976 54.5925 101.389 55.3654 102.003 55.9594C102.703 56.5278 103.591 56.8096 104.49 56.7484C105.406 56.8051 106.307 56.5024 107.005 55.9041C107.631 55.2822 108.059 54.487 108.235 53.62C108.475 52.5403 108.59 51.4362 108.576 50.3299V45.809H104.439V40.5503H116.38V62.4252H110.722L110.199 58.5867C109.66 59.8614 108.792 60.9685 107.684 61.794C106.569 62.6382 105.068 63.059 103.182 63.0564Z" fill="white"/>
<path d="M122.25 62.4252V19.8195H140.718V25.8159H130.895V37.134H138.49V43.1816H130.895V56.5353H140.848V62.4252H122.25Z" fill="white"/>
<path d="M156.973 63.0051C153.861 63.0051 151.399 62.4436 149.586 61.3206C147.779 60.2103 146.402 58.5139 145.685 56.5117C144.846 54.1046 144.447 51.5655 144.506 49.0162V33.1299C144.445 30.5908 144.845 28.0618 145.685 25.666C146.399 23.6814 147.778 22.0079 149.586 20.932C151.402 19.859 153.864 19.3225 156.973 19.3225C160.083 19.3225 162.571 19.8748 164.439 20.9794C166.252 22.0569 167.64 23.7287 168.368 25.7133C169.154 27.7647 169.547 30.2448 169.547 33.1535V49.036C169.606 51.5853 169.207 54.1244 168.368 56.5314C167.647 58.5396 166.26 60.2375 164.439 61.3403C162.605 62.4528 160.117 63.0077 156.973 63.0051ZM156.973 56.7484C158.089 56.7484 158.909 56.4933 159.433 55.983C159.983 55.4241 160.349 54.7096 160.482 53.9356C160.66 53.0261 160.747 52.101 160.742 51.1741V31.0311C160.748 30.1134 160.661 29.1974 160.482 28.2973C160.345 27.5316 159.979 26.8259 159.433 26.2735C158.909 25.7633 158.089 25.5095 156.973 25.5121C155.926 25.5121 155.14 25.7659 154.616 26.2735C154.067 26.8238 153.701 27.5305 153.567 28.2973C153.387 29.1972 153.299 30.1132 153.304 31.0311V51.1741C153.299 52.0999 153.378 53.0242 153.539 53.9356C153.655 54.7097 154.012 55.4268 154.561 55.983C155.087 56.4919 155.889 56.7484 156.973 56.7484Z" fill="white"/>
<path d="M199.241 62.8986C196.375 62.8986 194.088 62.3384 192.38 61.218C190.652 60.0756 189.36 58.3792 188.714 56.4052C187.937 54.0408 187.564 51.561 187.614 49.0715V32.9247C187.558 30.4664 187.938 28.0177 188.738 25.6936C189.406 23.7809 190.698 22.1505 192.404 21.0662C194.096 19.9984 196.375 19.4645 199.241 19.4645C202.107 19.4645 204.376 20.0076 206.05 21.0938C207.737 22.1931 209.015 23.8193 209.689 25.7212C210.492 28.0351 210.874 30.4751 210.817 32.9247V49.1228C210.865 51.5885 210.483 54.0437 209.689 56.3775C209.024 58.3335 207.748 60.0216 206.05 61.1904C204.374 62.3318 202.104 62.9012 199.241 62.8986ZM199.241 58.2198C200.813 58.2198 201.999 57.895 202.801 57.2454C203.636 56.5459 204.21 55.5818 204.428 54.5116C204.725 53.1569 204.865 51.7722 204.844 50.3851V31.7176C204.867 30.3474 204.727 28.9794 204.428 27.6424C204.208 26.6014 203.633 25.6704 202.801 25.0111C201.999 24.3983 200.813 24.0919 199.241 24.0919C197.669 24.0919 196.471 24.3997 195.653 25.0111C194.808 25.6626 194.223 26.5958 194.003 27.6424C193.702 28.9792 193.561 30.3472 193.583 31.7176V50.3851C193.563 51.7723 193.704 53.1571 194.003 54.5116C194.221 55.5874 194.804 56.5538 195.653 57.2454C196.471 57.8964 197.669 58.2198 199.241 58.2198Z" fill="white"/>
<path d="M216.105 72.4178V32.0332H221.709V34.4514C222.399 33.657 223.214 32.9814 224.121 32.4513C225.142 31.8709 226.3 31.5805 227.473 31.611C229.045 31.611 230.293 32.0226 231.217 32.8458C232.156 33.6896 232.867 34.7575 233.284 35.9505C233.733 37.1706 234.033 38.441 234.176 39.7337C234.303 40.826 234.372 41.9242 234.384 43.0238V50.3851C234.395 52.4258 234.185 54.4616 233.756 56.4564C233.433 58.1795 232.645 59.7803 231.477 61.0839C230.381 62.2674 228.832 62.8473 226.844 62.8473C225.825 62.8658 224.823 62.5817 223.964 62.0307C223.14 61.5027 222.382 60.8761 221.709 60.1647V72.4178H216.105ZM225.744 58.4289C226.158 58.4626 226.574 58.3797 226.944 58.1894C227.314 57.9992 227.623 57.7092 227.838 57.3519C228.31 56.4482 228.578 55.4517 228.624 54.4327C228.729 53.2045 228.781 51.8553 228.781 50.3851V43.0238C228.786 41.8542 228.717 40.6854 228.573 39.5247C228.488 38.6147 228.182 37.7396 227.681 36.9762C227.225 36.345 226.509 36.0294 225.532 36.0294C224.807 36.0279 224.091 36.1896 223.437 36.5028C222.815 36.7921 222.233 37.1636 221.709 37.6074V57.064C222.259 57.4638 222.858 57.7901 223.492 58.0344C224.211 58.3086 224.975 58.4425 225.744 58.4289Z" fill="white"/>
<path d="M247.481 62.8473C246.156 62.9074 244.841 62.5974 243.681 61.9518C242.728 61.3635 241.992 60.4782 241.587 59.4309C241.125 58.204 240.903 56.8997 240.931 55.5886V35.7651H237.736V32.0332H240.915V23.1451H246.522V32.0332H251.406V35.7651H246.538V55.2217C246.538 56.4052 246.726 57.2652 247.111 57.7741C247.497 58.283 248.231 58.5354 249.312 58.5354C249.591 58.5354 249.917 58.5354 250.282 58.4842L251.355 58.3776V62.5317C250.656 62.6382 250.011 62.7171 249.418 62.7684C248.825 62.8197 248.176 62.8473 247.481 62.8473Z" fill="white"/>
<path d="M255.846 27.5083V21.6184H261.465V27.5083H255.846ZM255.846 62.4252V32.0489H261.465V62.4252H255.846Z" fill="white"/>
<path d="M267.434 62.4252V32.0489H272.62V34.9406C273.54 33.8433 274.683 32.9568 275.972 32.3409C277.153 31.7866 278.441 31.4984 279.744 31.4966C280.809 31.4813 281.855 31.7744 282.758 32.3409C283.646 32.9011 284.283 33.8991 284.668 35.3351C285.616 34.1119 286.824 33.116 288.204 32.4198C289.453 31.81 290.823 31.4943 292.212 31.4966C293.149 31.4863 294.071 31.7317 294.88 32.2067C295.741 32.7448 296.418 33.5332 296.821 34.4672C297.357 35.7575 297.606 37.1494 297.552 38.5463V62.4173H292.42V38.9211C292.42 37.4509 292.184 36.4607 291.713 35.9505C291.467 35.6931 291.169 35.4916 290.839 35.3596C290.509 35.2276 290.154 35.1681 289.799 35.1852C288.955 35.2062 288.129 35.4323 287.391 35.844C286.522 36.307 285.742 36.9215 285.088 37.6587V62.4252H279.952V38.9211C279.952 37.4509 279.717 36.4607 279.245 35.9505C279 35.6934 278.702 35.4921 278.373 35.3601C278.044 35.2281 277.69 35.1684 277.336 35.1852C276.499 35.204 275.679 35.4303 274.95 35.844C274.082 36.3204 273.296 36.933 272.62 37.6587V62.4252H267.434Z" fill="white"/>
<path d="M303.367 27.5083V21.6184H308.97V27.5083H303.367ZM303.367 62.4252V32.0489H308.97V62.4252H303.367Z" fill="white"/>
<path d="M313.788 62.4252V58.642L323.061 36.2385H314.731V32.0332H329.084V35.1023L319.76 58.1883H328.872V62.4449L313.788 62.4252Z" fill="white"/>
<path d="M341.025 62.8473C338.65 62.8473 336.816 62.3831 335.524 61.4547C334.177 60.4446 333.223 58.9933 332.829 57.3519C332.28 55.1792 332.026 52.9418 332.074 50.7007V43.7576C332.022 41.4884 332.287 39.223 332.86 37.0275C333.278 35.3972 334.251 33.9652 335.611 32.98C336.921 32.0647 338.728 31.6084 341.033 31.611C343.579 31.611 345.456 32.137 346.664 33.189C347.872 34.241 348.665 35.7572 349.045 37.7376C349.462 40.0888 349.655 42.4743 349.623 44.8622V47.3317H337.674V53.4307C337.647 54.441 337.76 55.4502 338.012 56.4288C338.177 57.1059 338.565 57.7074 339.112 58.137C339.692 58.5258 340.38 58.7192 341.077 58.6893C341.767 58.7371 342.451 58.5216 342.99 58.0857C343.461 57.6158 343.772 57.0082 343.878 56.3499C344.046 55.4753 344.125 54.5857 344.114 53.695V51.8527H349.564V53.0085C349.564 56.0593 348.917 58.4618 347.623 60.216C346.329 61.9702 344.13 62.8473 341.025 62.8473ZM337.674 44.2823H344.114V41.5484C344.127 40.4847 344.057 39.4216 343.906 38.3688C343.827 37.6456 343.525 36.9654 343.041 36.4239C342.605 35.986 341.913 35.7651 340.974 35.7651C340.23 35.7108 339.492 35.9358 338.904 36.3963C338.432 36.8171 338.109 37.5272 337.933 38.5266C337.735 39.8927 337.648 41.2727 337.674 42.653V44.2823Z" fill="white"/>
<path d="M354.802 62.4252V32.0489H360.405V36.345C361.521 34.4856 362.638 33.2403 363.756 32.6091C364.772 32.0061 365.928 31.6797 367.108 31.6623H367.501C367.668 31.6679 367.835 31.6863 368 31.7176V37.923C367.534 37.7294 367.051 37.5776 366.558 37.4693C366.016 37.3477 365.463 37.2869 364.908 37.2879C364.075 37.2777 363.254 37.4857 362.526 37.8914C361.806 38.2938 361.099 39.0736 360.405 40.2308V62.4212L354.802 62.4252Z" fill="white"/>
<defs>
<linearGradient id="paint0_linear_1_2330" x1="-5.3966" y1="8.7263" x2="81.1932" y2="8.7263" gradientUnits="userSpaceOnUse">
<stop stop-color="#186BEF"/>
<stop offset="1" stop-color="#3C97EA"/>
</linearGradient>
<linearGradient id="paint1_linear_1_2330" x1="-5.39658" y1="25.6699" x2="81.1932" y2="25.6699" gradientUnits="userSpaceOnUse">
<stop stop-color="#186BEF"/>
<stop offset="1" stop-color="#3C97EA"/>
</linearGradient>
<linearGradient id="paint2_linear_1_2330" x1="-5.39659" y1="22.5416" x2="81.1932" y2="22.5416" gradientUnits="userSpaceOnUse">
<stop stop-color="#186BEF"/>
<stop offset="1" stop-color="#3C97EA"/>
</linearGradient>
<linearGradient id="paint3_linear_1_2330" x1="-5.3966" y1="28.8772" x2="81.1932" y2="28.8772" gradientUnits="userSpaceOnUse">
<stop stop-color="#186BEF"/>
<stop offset="1" stop-color="#3C97EA"/>
</linearGradient>
<linearGradient id="paint4_linear_1_2330" x1="-5.39659" y1="46.5467" x2="81.1932" y2="46.5467" gradientUnits="userSpaceOnUse">
<stop stop-color="#186BEF"/>
<stop offset="1" stop-color="#3C97EA"/>
</linearGradient>
</defs>
</svg>
