<svg width="230" height="50" viewBox="0 0 230 50" fill="none" xmlns="http://www.w3.org/2000/svg">
<path d="M50.3749 5.27888C50.3304 4.27301 49.9997 3.30101 49.4221 2.47795C49.5615 2.33194 49.6692 2.15852 49.7385 1.96863C49.8079 1.77873 49.8373 1.57648 49.8249 1.37461C49.8125 1.17274 49.7586 0.975637 49.6666 0.795711C49.5746 0.615785 49.4465 0.456939 49.2904 0.329184C49.1342 0.201428 48.9534 0.107532 48.7593 0.0534108C48.5652 -0.00071018 48.362 -0.0138825 48.1626 0.0147237C47.9632 0.04333 47.7718 0.113095 47.6006 0.219622C47.4293 0.32615 47.2819 0.467131 47.1676 0.633682C46.3796 0.292147 45.5205 0.148461 44.6648 0.215048C43.809 0.281635 42.9823 0.556491 42.256 1.01585C42.114 0.883371 41.947 0.780708 41.7649 0.713881C41.5828 0.647054 41.3892 0.61741 41.1955 0.626687C41.0019 0.635965 40.812 0.683977 40.637 0.767908C40.4621 0.851838 40.3056 0.969998 40.1768 1.11545C40.0479 1.26091 39.9493 1.43074 39.8867 1.61497C39.8241 1.79921 39.7987 1.99414 39.8121 2.18833C39.8256 2.38253 39.8775 2.57208 39.9648 2.74587C40.0522 2.91966 40.1732 3.07418 40.3208 3.20038C39.7732 4.32991 39.6444 5.61838 39.9574 6.83468C39.9773 6.92253 40.0263 7.00103 40.0963 7.05743C40.1663 7.11383 40.2532 7.14481 40.3429 7.14534C40.3755 7.15017 40.4086 7.15017 40.4412 7.14534C40.4926 7.13245 40.541 7.10937 40.5834 7.07746C40.6258 7.04554 40.6614 7.00543 40.6882 6.9595C40.715 6.91356 40.7323 6.86271 40.7393 6.80994C40.7462 6.75717 40.7425 6.70355 40.7285 6.65222C40.4614 5.61166 40.5747 4.50945 41.0478 3.54556C41.1184 3.55808 41.1898 3.5655 41.2614 3.56775C41.6501 3.56776 42.023 3.4136 42.299 3.13882C42.575 2.86405 42.7317 2.49093 42.7349 2.10072C42.7286 1.97168 42.7055 1.84402 42.6661 1.72101C43.0723 1.45315 43.5194 1.25408 43.9898 1.13173C44.2774 1.06148 44.5709 1.01855 44.8665 1.00352C45.5714 0.972773 46.2736 1.10787 46.9171 1.39802C46.9171 1.42021 46.9171 1.43993 46.9171 1.46459C46.9132 1.68894 46.9615 1.9111 47.0582 2.11342C47.1548 2.31574 47.2971 2.49264 47.4738 2.63004C47.6505 2.76745 47.8566 2.86158 48.0759 2.90494C48.2952 2.94831 48.5215 2.93972 48.7369 2.87985C49.2748 3.62697 49.5719 4.52159 49.5881 5.44332C49.6044 6.36505 49.339 7.26967 48.8278 8.03542C48.7078 8.00185 48.5839 7.98444 48.4594 7.98365C48.1195 7.98175 47.7894 8.09787 47.5251 8.31235C47.2607 8.52682 47.0783 8.82646 47.0088 9.16049C46.9393 9.49452 46.987 9.8424 47.1437 10.1452C47.3005 10.448 47.5566 10.6871 47.8689 10.8219C48.1811 10.9568 48.5301 10.9791 48.8569 10.8852C49.1836 10.7912 49.468 10.5868 49.6617 10.3064C49.8555 10.0261 49.9468 9.68708 49.9201 9.34689C49.8935 9.00671 49.7505 8.68624 49.5154 8.43978C50.1283 7.50421 50.4293 6.39734 50.3749 5.27888Z" fill="url(#paint0_linear_1_25)"/>
<path d="M19.4514 25.413H22.0177L35.2938 10.7648C35.7104 10.861 36.1464 10.8247 36.5415 10.661C36.9366 10.4973 37.2712 10.2143 37.499 9.85114C37.7268 9.48801 37.8364 9.06274 37.8128 8.63426C37.7891 8.20578 37.6333 7.7953 37.3669 7.45968C37.1006 7.12406 36.7368 6.87992 36.3261 6.76107C35.9154 6.64223 35.478 6.65457 35.0746 6.79639C34.6712 6.9382 34.3217 7.20247 34.0745 7.55258C33.8273 7.90269 33.6947 8.32131 33.6951 8.75045C33.6944 9.03875 33.7556 9.32381 33.8744 9.58629L19.4514 25.413Z" fill="url(#paint1_linear_1_25)"/>
<path d="M28.5895 25.413L44.1838 8.15377C44.7978 8.37762 45.4708 8.37626 46.0838 8.14993C46.6968 7.92361 47.2104 7.48691 47.5336 6.91707C47.8568 6.34724 47.9689 5.681 47.85 5.03618C47.7312 4.39137 47.389 3.80955 46.884 3.39363C46.379 2.97771 45.7438 2.75449 45.0907 2.76346C44.4376 2.77243 43.8087 3.01301 43.3153 3.44264C42.8218 3.87228 42.4956 4.46328 42.3943 5.11112C42.2931 5.75895 42.4233 6.42187 42.7619 6.98261L25.9568 25.4081L28.5895 25.413Z" fill="url(#paint2_linear_1_25)"/>
<path d="M44.9451 10.681C44.6188 10.6803 44.2972 10.7597 44.0085 10.9124C43.7198 11.0652 43.4728 11.2866 43.2889 11.5573C43.105 11.8279 42.99 12.1397 42.9538 12.4653C42.9176 12.7909 42.9613 13.1205 43.0812 13.4252L32.1332 25.4179H34.7928L44.4662 14.6482C44.623 14.6866 44.7837 14.7065 44.9451 14.7073C45.214 14.7168 45.4821 14.6718 45.7333 14.575C45.9845 14.4782 46.2137 14.3316 46.4072 14.144C46.6008 13.9563 46.7547 13.7315 46.8599 13.4828C46.965 13.2342 47.0192 12.9668 47.0192 12.6966C47.0192 12.4265 46.965 12.1591 46.8599 11.9105C46.7547 11.6618 46.6008 11.437 46.4072 11.2493C46.2137 11.0617 45.9845 10.9151 45.7333 10.8183C45.4821 10.7215 45.214 10.6765 44.9451 10.6859V10.681Z" fill="url(#paint3_linear_1_25)"/>
<path d="M39.4073 27.6814C38.8144 27.6814 38.2368 27.8702 37.7576 28.2206C37.2783 28.5711 36.9221 29.0651 36.7403 29.6316H22.7618C22.5597 28.9969 22.1402 28.4547 21.5777 28.1011C21.0151 27.7475 20.346 27.6054 19.689 27.7002C19.0321 27.7949 18.4298 28.1203 17.9891 28.6186C17.5485 29.1168 17.2979 29.7558 17.2819 30.4219C17.266 31.0881 17.4856 31.7384 17.9019 32.2573C18.3182 32.7763 18.9042 33.1304 19.5558 33.2568C20.2075 33.3831 20.8827 33.2736 21.4615 32.9476C22.0403 32.6215 22.4854 32.1001 22.7176 31.4759H30.5443C30.5443 31.4759 30.5443 31.4956 30.5443 31.508C30.2236 33.4703 29.3501 35.2995 28.0271 36.7794L28.0025 36.8041C27.4943 37.3739 26.9243 37.885 26.3031 38.3278C24.1156 39.9092 21.4016 40.5749 18.7343 40.1844C17.4953 39.9742 16.3001 39.5575 15.1979 38.9516C15.2639 38.7107 15.2969 38.4618 15.2962 38.2119C15.2969 37.7582 15.1881 37.3111 14.9791 36.9088C14.7701 36.5065 14.4672 36.1611 14.0962 35.902C13.7252 35.6429 13.2971 35.478 12.8488 35.4212C12.4004 35.3645 11.945 35.4177 11.5216 35.5762C10.255 33.6829 9.65002 31.421 9.80157 29.1454C9.95313 26.8697 10.8526 24.7088 12.359 23.0016C12.4548 22.8882 12.5506 22.7822 12.6513 22.6786C14.4499 20.7588 16.9077 19.5963 19.5275 19.4265L20.9863 19.2761L27.4303 12.2171C27.8456 12.3365 28.2878 12.3218 28.6943 12.1752C29.1008 12.0286 29.4512 11.7573 29.6958 11.3999C29.9404 11.0424 30.067 10.6168 30.0575 10.1833C30.0481 9.74966 29.9032 9.33 29.6432 8.98361C29.3833 8.63722 29.0215 8.38162 28.609 8.25293C28.1965 8.12423 27.7541 8.12897 27.3444 8.26646C26.9347 8.40395 26.5784 8.66724 26.3259 9.01912C26.0734 9.37099 25.9374 9.79365 25.9372 10.2273C25.9373 10.4803 25.9839 10.7311 26.0747 10.967L20.0506 17.5822H19.3556C16.119 17.8169 13.1058 19.3261 10.9724 21.7811C8.83901 24.2361 7.75827 27.438 7.96559 30.6894C7.96431 30.7075 7.96431 30.7256 7.96559 30.7436C8.12873 32.9105 8.86549 34.9943 10.0997 36.7794C9.85403 37.1884 9.71671 37.6537 9.70081 38.131C9.6849 38.6084 9.79094 39.0818 10.0088 39.5064L7.02502 42.4972C4.52345 39.896 2.83993 36.613 2.1844 33.0576C1.52886 29.5022 1.93032 25.8318 3.33872 22.5039C4.74711 19.1761 7.10011 16.3381 10.1043 14.344C13.1085 12.3498 16.6309 11.2877 20.2323 11.29C20.4772 11.29 20.7121 11.1923 20.8853 11.0185C21.0584 10.8446 21.1557 10.6088 21.1557 10.363C21.1557 10.1171 21.0584 9.88128 20.8853 9.70742C20.7121 9.53356 20.4772 9.43589 20.2323 9.43589C14.9333 9.42711 9.843 11.5094 6.05891 15.2337C2.27482 18.9581 0.100017 24.0262 0.00336427 29.3456C-0.0932887 34.6649 1.89595 39.8093 5.54222 43.6698C9.1885 47.5302 14.1997 49.7975 19.4956 49.9827C19.5401 49.9923 19.5852 49.9981 19.6307 50C19.8271 50 20.0211 50 20.2176 50C24.9696 49.9917 29.5672 48.3044 33.2043 45.2339C36.8414 42.1634 39.286 37.9056 40.1096 33.2068C40.7717 33.0382 41.3495 32.6324 41.7343 32.0659C42.1191 31.4993 42.2843 30.8111 42.1989 30.1307C42.1135 29.4504 41.7833 28.8249 41.2705 28.3719C40.7577 27.919 40.0977 27.6699 39.4146 27.6715L39.4073 27.6814ZM18.5968 40.1548C18.6252 40.1559 18.6533 40.1609 18.6803 40.1696L18.5059 40.145L18.5968 40.1548ZM20.2471 48.1508H20.2323C15.8816 48.1541 11.6727 46.5977 8.36343 43.762L11.3276 40.7811C11.7776 40.989 12.2746 41.0728 12.7675 41.0239C13.2604 40.9749 13.7315 40.7949 14.1321 40.5025C15.3414 41.1978 16.6604 41.6799 18.0319 41.9276C18.0885 41.9453 18.1458 41.9601 18.2038 41.972C18.6914 42.0546 19.1835 42.1081 19.6773 42.1323C21.8681 42.2343 24.0456 41.7393 25.9789 40.6997C26.2662 40.5512 26.545 40.3865 26.8139 40.2066C26.9023 40.1524 26.9956 40.0932 27.084 40.0291C27.1725 39.965 27.283 39.896 27.3787 39.8245C27.5457 39.7061 27.7103 39.5779 27.8699 39.4546C27.9804 39.3708 28.0885 39.2796 28.1941 39.1834C28.5919 38.843 28.9683 38.4782 29.3213 38.0911C29.3289 38.0792 29.3371 38.0677 29.3458 38.0566C30.9295 36.3065 31.9759 34.1344 32.3591 31.8014C32.3788 31.6905 32.3788 31.577 32.3591 31.4661H36.7919C36.9212 31.8145 37.118 32.1338 37.3709 32.4055C37.6238 32.6772 37.9278 32.8959 38.2653 33.049C37.4857 37.2799 35.2585 41.1046 31.9686 43.862C28.6787 46.6194 24.5327 48.1364 20.2471 48.1508Z" fill="url(#paint4_linear_1_25)"/>
<path d="M64.4884 39.4102C62.6973 39.4102 61.2787 39.0322 60.2325 38.2761C59.1527 37.479 58.364 36.3475 57.9879 35.056C57.5152 33.4849 57.289 31.8495 57.3175 30.2086V21.3004C57.2831 19.6305 57.5144 17.9658 58.0027 16.3692C58.4101 15.0573 59.2614 13.9296 60.4093 13.1811C61.5554 12.4365 63.1107 12.0642 65.0754 12.0642C66.9745 12.0642 68.475 12.3815 69.5769 13.0159C70.649 13.6183 71.4855 14.5686 71.9492 15.7108C72.4572 17.0309 72.7016 18.4383 72.6687 19.8531V21.3965H67.401V19.5276C67.4064 18.9054 67.3629 18.2838 67.2709 17.6685C67.2114 17.1918 66.9984 16.7477 66.6643 16.4037C66.3475 16.0979 65.8416 15.9451 65.1417 15.9451C64.4418 15.9451 63.899 16.13 63.5724 16.5023C63.2294 16.9073 63.0125 17.4046 62.9487 17.9324C62.8599 18.5472 62.8164 19.1677 62.8185 19.789V31.5893C62.8117 32.2627 62.8776 32.9348 63.015 33.5939C63.1101 34.1203 63.3679 34.6034 63.7517 34.9746C64.1894 35.3299 64.7447 35.506 65.3062 35.4677C65.8785 35.5032 66.442 35.314 66.8779 34.9401C67.2696 34.5513 67.5372 34.0544 67.6466 33.5125C67.7968 32.8377 67.8685 32.1476 67.8603 31.4562V28.6306H65.2743V25.344H72.7375V39.0157H69.2011L68.8745 36.6167C68.5375 37.4134 67.995 38.1053 67.3028 38.6212C66.6053 39.1489 65.6672 39.4119 64.4884 39.4102Z" fill="#0A2337"/>
<path d="M76.4065 39.0157V12.3872H87.9488V16.1349H81.8092V23.2087H86.5563V26.9885H81.8092V35.3346H88.0298V39.0157H76.4065Z" fill="#0A2337"/>
<path d="M98.1084 39.3782C96.1634 39.3782 94.6245 39.0272 93.4915 38.3254C92.3616 37.6314 91.5013 36.5712 91.0529 35.3198C90.5289 33.8154 90.2793 32.2285 90.3162 30.6351V20.7062C90.2784 19.1192 90.528 17.5386 91.0529 16.0412C91.4994 14.8009 92.3615 13.7549 93.4915 13.0825C94.6261 12.4119 96.1651 12.0765 98.1084 12.0765C100.052 12.0765 101.607 12.4217 102.774 13.1121C103.908 13.7856 104.775 14.8305 105.23 16.0708C105.721 17.3529 105.967 18.903 105.967 20.721V30.6475C106.004 32.2408 105.754 33.8277 105.23 35.3321C104.779 36.5872 103.912 37.6484 102.774 38.3377C101.628 39.033 100.073 39.3798 98.1084 39.3782ZM98.1084 35.4677C98.8059 35.4677 99.3183 35.3083 99.6458 34.9894C99.9894 34.6401 100.218 34.1935 100.301 33.7098C100.413 33.1413 100.467 32.5631 100.464 31.9838V19.3945C100.467 18.8209 100.413 18.2484 100.301 17.6858C100.215 17.2073 99.9868 16.7662 99.6458 16.4209C99.3183 16.1021 98.8059 15.9434 98.1084 15.9451C97.4536 15.9451 96.9624 16.1037 96.6349 16.4209C96.2921 16.7649 96.0631 17.2065 95.9793 17.6858C95.8668 18.2483 95.8117 18.8208 95.8147 19.3945V31.9838C95.8117 32.5624 95.861 33.1401 95.9621 33.7098C96.0341 34.1936 96.2578 34.6418 96.6006 34.9894C96.9296 35.3075 97.4306 35.4677 98.1084 35.4677Z" fill="#0A2337"/>
<path d="M124.526 39.3116C122.734 39.3116 121.305 38.9615 120.238 38.2613C119.157 37.5472 118.35 36.487 117.946 35.2532C117.46 33.7755 117.228 32.2256 117.259 30.6697V20.578C117.224 19.0415 117.461 17.5111 117.961 16.0585C118.379 14.863 119.186 13.844 120.252 13.1663C121.31 12.499 122.734 12.1653 124.526 12.1653C126.317 12.1653 127.735 12.5047 128.781 13.1836C129.835 13.8707 130.635 14.8871 131.056 16.0758C131.557 17.5219 131.796 19.0469 131.76 20.578V30.7017C131.79 32.2428 131.552 33.7773 131.056 35.236C130.64 36.4585 129.843 37.5135 128.781 38.244C127.734 38.9574 126.315 39.3133 124.526 39.3116ZM124.526 36.3874C125.508 36.3874 126.25 36.1844 126.751 35.7784C127.273 35.3412 127.631 34.7386 127.767 34.0697C127.953 33.2231 128.04 32.3576 128.028 31.4907V19.8235C128.042 18.9671 127.954 18.1121 127.767 17.2765C127.63 16.6259 127.27 16.044 126.751 15.6319C126.25 15.249 125.508 15.0575 124.526 15.0575C123.543 15.0575 122.794 15.2498 122.283 15.6319C121.755 16.0391 121.389 16.6224 121.252 17.2765C121.064 18.112 120.976 18.967 120.989 19.8235V31.4907C120.977 32.3577 121.065 33.2232 121.252 34.0697C121.388 34.7421 121.753 35.3461 122.283 35.7784C122.794 36.1852 123.543 36.3874 124.526 36.3874Z" fill="#0A2337"/>
<path d="M135.066 45.2611V20.0207H138.568V21.5321C138.999 21.0357 139.509 20.6134 140.076 20.2821C140.714 19.9193 141.438 19.7378 142.171 19.7569C143.153 19.7569 143.933 20.0141 144.511 20.5286C145.097 21.056 145.542 21.7234 145.803 22.4691C146.083 23.2316 146.271 24.0256 146.36 24.8336C146.439 25.5163 146.483 26.2026 146.49 26.8899V31.4907C146.497 32.7661 146.365 34.0385 146.097 35.2853C145.896 36.3622 145.403 37.3627 144.673 38.1774C143.988 38.9171 143.02 39.2796 141.778 39.2796C141.141 39.2911 140.514 39.1136 139.977 38.7692C139.462 38.4392 138.989 38.0476 138.568 37.6029V45.2611H135.066ZM141.09 36.5181C141.349 36.5391 141.609 36.4873 141.84 36.3684C142.071 36.2495 142.265 36.0682 142.399 35.845C142.693 35.2801 142.861 34.6573 142.89 34.0204C142.956 33.2528 142.988 32.4096 142.988 31.4907V26.8899C142.991 26.1589 142.948 25.4284 142.858 24.7029C142.805 24.1342 142.614 23.5872 142.301 23.1101C142.016 22.7156 141.568 22.5184 140.957 22.5184C140.504 22.5174 140.057 22.6185 139.648 22.8143C139.259 22.995 138.896 23.2272 138.568 23.5046V35.665C138.912 35.9149 139.286 36.1188 139.683 36.2715C140.132 36.4429 140.61 36.5266 141.09 36.5181Z" fill="#0A2337"/>
<path d="M154.675 39.2796C153.848 39.3171 153.025 39.1234 152.301 38.7199C151.705 38.3522 151.245 37.7988 150.992 37.1443C150.703 36.3775 150.564 35.5623 150.582 34.7428V22.3532H148.585V20.0207H150.572V14.4657H154.076V20.0207H157.129V22.3532H154.086V34.5135C154.086 35.2532 154.204 35.7907 154.445 36.1088C154.685 36.4269 155.145 36.5846 155.82 36.5846C155.994 36.5846 156.198 36.5847 156.426 36.5526L157.097 36.486V39.0823C156.66 39.1489 156.257 39.1982 155.886 39.2302C155.515 39.2623 155.11 39.2796 154.675 39.2796Z" fill="#0A2337"/>
<path d="M159.904 17.1927V13.5115H163.416V17.1927H159.904ZM159.904 39.0157V20.0306H163.416V39.0157H159.904Z" fill="#0A2337"/>
<path d="M167.146 39.0157V20.0306H170.388V21.8379C170.962 21.1521 171.677 20.598 172.483 20.213C173.221 19.8666 174.025 19.6865 174.84 19.6854C175.505 19.6758 176.159 19.859 176.724 20.213C177.279 20.5632 177.677 21.187 177.917 22.0844C178.51 21.3199 179.265 20.6975 180.127 20.2624C180.908 19.8813 181.765 19.6839 182.632 19.6854C183.218 19.6789 183.794 19.8323 184.3 20.1292C184.838 20.4655 185.261 20.9583 185.513 21.542C185.848 22.3484 186.004 23.2184 185.97 24.0914V39.0108H182.763V24.3257C182.763 23.4068 182.615 22.788 182.321 22.4691C182.167 22.3082 181.98 22.1823 181.774 22.0998C181.568 22.0173 181.346 21.9801 181.125 21.9907C180.597 22.0039 180.08 22.1452 179.619 22.4025C179.076 22.6919 178.589 23.0759 178.18 23.5367V39.0157H174.97V24.3257C174.97 23.4068 174.823 22.788 174.528 22.4691C174.375 22.3084 174.189 22.1826 173.983 22.1001C173.777 22.0176 173.556 21.9803 173.335 21.9907C172.812 22.0025 172.3 22.1439 171.844 22.4025C171.302 22.7003 170.81 23.0831 170.388 23.5367V39.0157H167.146Z" fill="#0A2337"/>
<path d="M189.604 17.1927V13.5115H193.106V17.1927H189.604ZM189.604 39.0157V20.0306H193.106V39.0157H189.604Z" fill="#0A2337"/>
<path d="M196.117 39.0157V36.6512L201.913 22.6491H196.707V20.0207H205.678V21.939L199.85 36.3677H205.545V39.0281L196.117 39.0157Z" fill="#0A2337"/>
<path d="M213.141 39.2796C211.656 39.2796 210.51 38.9894 209.703 38.4092C208.861 37.7779 208.265 36.8708 208.018 35.845C207.675 34.487 207.516 33.0886 207.547 31.688V27.3485C207.514 25.9302 207.679 24.5144 208.038 23.1422C208.299 22.1233 208.907 21.2283 209.757 20.6125C210.575 20.0404 211.705 19.7553 213.146 19.7569C214.737 19.7569 215.91 20.0857 216.665 20.7431C217.42 21.4006 217.916 22.3483 218.153 23.586C218.414 25.0555 218.534 26.5465 218.514 28.0389V29.5823H211.046V33.3942C211.029 34.0256 211.1 34.6563 211.257 35.268C211.361 35.6912 211.603 36.0671 211.945 36.3356C212.307 36.5786 212.737 36.6995 213.173 36.6808C213.605 36.7107 214.032 36.576 214.369 36.3036C214.663 36.0099 214.858 35.6301 214.924 35.2187C215.029 34.6721 215.078 34.1161 215.071 33.5594V32.4079H218.477V33.1303C218.477 35.0371 218.073 36.5386 217.264 37.635C216.455 38.7314 215.081 39.2796 213.141 39.2796ZM211.046 27.6764H215.071V25.9678C215.079 25.3029 215.036 24.6385 214.941 23.9805C214.892 23.5285 214.703 23.1034 214.401 22.7649C214.128 22.4913 213.696 22.3532 213.109 22.3532C212.644 22.3193 212.183 22.4599 211.815 22.7477C211.52 23.0107 211.318 23.4545 211.208 24.0791C211.084 24.9329 211.03 25.7955 211.046 26.6581V27.6764Z" fill="#0A2337"/>
<path d="M221.751 39.0157V20.0306H225.253V22.7156C225.95 21.5535 226.649 20.7752 227.348 20.3807C227.983 20.0038 228.705 19.7998 229.443 19.789H229.688C229.793 19.7924 229.897 19.804 230 19.8235V23.7019C229.708 23.5809 229.407 23.486 229.099 23.4183C228.76 23.3423 228.414 23.3043 228.067 23.3049C227.547 23.2986 227.034 23.4286 226.579 23.6821C226.129 23.9336 225.687 24.421 225.253 25.1442V39.0133L221.751 39.0157Z" fill="#0A2337"/>
<defs>
<linearGradient id="paint0_linear_1_25" x1="-3.37288" y1="5.45394" x2="50.7457" y2="5.45394" gradientUnits="userSpaceOnUse">
<stop stop-color="#186BEF"/>
<stop offset="1" stop-color="#3C97EA"/>
</linearGradient>
<linearGradient id="paint1_linear_1_25" x1="-3.37287" y1="16.0437" x2="50.7457" y2="16.0437" gradientUnits="userSpaceOnUse">
<stop stop-color="#186BEF"/>
<stop offset="1" stop-color="#3C97EA"/>
</linearGradient>
<linearGradient id="paint2_linear_1_25" x1="-3.37287" y1="14.0885" x2="50.7457" y2="14.0885" gradientUnits="userSpaceOnUse">
<stop stop-color="#186BEF"/>
<stop offset="1" stop-color="#3C97EA"/>
</linearGradient>
<linearGradient id="paint3_linear_1_25" x1="-3.37288" y1="18.0482" x2="50.7457" y2="18.0482" gradientUnits="userSpaceOnUse">
<stop stop-color="#186BEF"/>
<stop offset="1" stop-color="#3C97EA"/>
</linearGradient>
<linearGradient id="paint4_linear_1_25" x1="-3.37287" y1="29.0917" x2="50.7457" y2="29.0917" gradientUnits="userSpaceOnUse">
<stop stop-color="#186BEF"/>
<stop offset="1" stop-color="#3C97EA"/>
</linearGradient>
</defs>
</svg>
